<svg width="165" height="91" xmlns="http://www.w3.org/2000/svg">
 <g>
  <title>background</title>
  <rect fill="none" id="canvas_background" height="20.055568" width="34.738118" y="-1" x="-1"/>
 </g>

 <g>
  <title>Layer 1</title>
  <path id="svg_2" stroke-miterlimit="2.613" stroke-width="1.074" stroke="#fff" fill="none" d="m72.129516,12.239551l3.823,-2.3l3.704,2.664l-1.075,-4.479l3.584,-2.663l-4.42,-0.363l-1.434,-4.237l-1.672,4.237l-4.54,0l3.465,2.905l-1.435,4.236m-48.982,19.005l2.15,-1.089l1.792,1.695l-0.239,-2.421l2.031,-1.21l-2.27,-0.363l-0.478,-2.421l-1.195,2.058l-2.389,-0.242l1.672,1.815l-1.074,2.178m114.811,-16.221c-1.434,-0.484 -2.867,-0.968 -4.42,-1.453c2.031,-1.089 4.301,-2.421 4.301,-2.421s-7.287,-1.574 -8.602,-1.937c-0.359,-1.332 -2.15,-8.958 -2.15,-8.958l-1.912,3.995s-1.314,2.542 -1.912,3.873c-1.434,-0.242 -8.959,-1.331 -8.959,-1.331s1.553,1.574 3.105,3.268c-0.717,-0.121 -1.434,-0.121 -2.031,-0.242c-19.592,-1.211 -43.248,2.421 -64.155,11.863l0.836,-4.237c-24.014,9.685 -43.846,31.717 -51.611,56.774c12.664,-13.436 25.208,-26.389 45.041,-34.016l-3.584,11.258c15.412,-10.531 37.155,-13.074 54.957,-9.079l-0.955,3.026c-11.23,-3.51 -23.417,-2.905 -35.483,0.242c12.305,3.027 22.699,5.205 33.452,10.895c1.195,19.006 18.279,35.59 37.992,33.412c39.064,-4.237 46.351,-62.1 6.09,-74.932"/>
  <path id="svg_3" fill="#bdc8d0" clip-rule="evenodd" fill-rule="evenodd" d="m60.3606,45.61855c12.067,-3.147 24.253,-3.752 35.483,-0.242l0.955,-3.026c-17.801,-3.995 -39.544,-1.453 -54.957,9.079l3.584,-11.258c-19.833,7.627 -32.377,20.58 -45.041,34.016c7.766,-25.057 27.598,-47.089 51.611,-56.774l-0.836,4.237c20.907,-9.442 44.563,-13.074 64.155,-11.863c7.766,0.484 16.01,3.026 22.58,5.205c40.262,12.832 32.975,70.695 -6.092,74.933c-19.713,2.178 -36.797,-14.406 -37.992,-33.412c-10.75,-5.69 -21.144,-7.867 -33.45,-10.895z"/>
  <path id="svg_4" d="m72.0686,12.20855l3.824,-2.301l3.703,2.664l-1.075,-4.48l3.584,-2.663l-4.42,-0.363l-1.434,-4.237l-1.672,4.237l-4.54,0l3.465,2.905l-1.435,4.238zm-48.982,19.005l2.15,-1.089l1.792,1.694l-0.239,-2.421l2.031,-1.21l-2.27,-0.363l-0.478,-2.422l-1.194,2.058l-2.39,-0.242l1.673,1.816l-1.075,2.179z" fill="#bdc8d0" clip-rule="evenodd" fill-rule="evenodd"/>
  <path id="svg_5" fill="#1f2528" clip-rule="evenodd" fill-rule="evenodd" d="m131.3266,14.87155c2.031,-1.21 6.451,-3.752 6.451,-3.752s-7.287,-1.574 -8.602,-1.937c-0.359,-1.332 -2.15,-8.958 -2.15,-8.958l-1.912,3.995s-1.314,2.542 -1.912,3.873c-1.434,-0.242 -8.959,-1.331 -8.959,-1.331s3.465,3.752 5.375,5.811c-9.557,-1.211 -21.025,-0.969 -34.646,1.21c-12.664,2.058 -25.088,5.689 -36.677,11.379l0.956,-4.358c-18.159,7.869 -37.036,27.843 -44.323,46.365c11.708,-13.68 28.195,-25.18 43.606,-30.264l-3.106,9.926c14.098,-8.716 38.231,-10.047 54.001,-5.932l-2.391,7.021c-8.602,-3.027 -21.504,-4.116 -30.345,-2.301c10.155,1.816 20.788,3.994 29.628,9.928c0.479,18.398 17.682,33.895 35.842,31.836c33.094,-3.631 46.237,-58.953 -0.836,-72.511z"/>
  <path id="svg_6" fill="#bdc8d0" clip-rule="evenodd" fill-rule="evenodd" d="m137.8976,38.96055c2.629,-2.542 4.779,-5.447 6.213,-8.716c-5.496,-4.6 -15.77,-9.806 -40.5,-9.079c10.633,1.453 20.668,3.753 26.521,7.142c-4.658,-1.332 -7.406,-1.453 -7.406,-1.453c-1.314,0.242 -3.227,0.605 -4.541,1.09c7.765,2.301 13.621,5.327 19.713,11.016zm-1.672,1.332c-18.041,-16.342 -50.656,-16.706 -72.519,-8.353c15.531,-1.937 46.474,-4.237 58.779,7.989c-3.703,-1.695 -11.229,-4.237 -15.531,-3.631a36.585,36.585 0 0 0 -3.463,5.932c11.109,3.026 22.699,5.932 32.734,-1.937zm7.168,8.717c-1.672,-2.422 -3.703,-4.722 -5.734,-6.901c-10.871,8.715 -22.939,5.448 -35.244,2.3c-2.27,6.537 -2.389,13.316 -0.119,19.853c14.335,-1.09 29.388,-6.537 41.097,-15.252zm3.703,7.262a50.427,50.427 0 0 0 -2.508,-5.084c-11.947,8.838 -26.523,14.164 -41.338,15.496c5.377,11.016 16.129,17.553 28.314,16.463c2.868,-10.047 6.213,-20.944 15.532,-26.875zm0.836,2.421c-8.482,5.084 -11.23,15.012 -13.857,24.09c5.854,-1.211 11.111,-3.873 15.291,-8.232c0.837,-5.326 0.12,-10.774 -1.434,-15.858zm1.912,-1.332c1.434,4.48 2.15,9.08 2.389,13.68c3.107,-5.205 4.66,-9.564 5.02,-15.857c-2.511,0.484 -5.02,1.088 -7.409,2.177zm-3.465,-7.506c0.957,1.695 1.793,3.512 2.629,5.328c2.748,-1.211 5.375,-1.938 8.244,-2.422c-0.359,-4.236 -1.195,-7.264 -2.988,-11.137c-2.389,3.027 -4.899,5.69 -7.885,8.231zm-6.93,-9.199c1.912,2.058 3.943,4.6 5.615,7.022c2.988,-2.543 5.615,-5.206 7.887,-8.474c-1.912,-2.905 -5.139,-6.174 -7.289,-7.748c-1.433,3.51 -3.584,6.537 -6.213,9.2zm-102.146,-3.389l1.911,-1.09l1.912,1.332l-0.598,-2.3l1.912,-1.332l-2.27,-0.121l-0.717,-2.3l-0.836,2.179l-2.27,0l1.673,1.452l-0.717,2.18zm185.417,-15.496l4.899,-2.299l4.181,4.115l-0.957,-5.69l4.661,-2.663l-5.497,-1.21l-1.314,-5.69l-2.389,4.963l-5.615,-0.847l4.063,4.237l-2.032,5.084z"/>
  <path id="svg_7" fill="#fff" clip-rule="evenodd" fill-rule="evenodd" d="m151.2776,39.44555c-0.717,0.847 -1.434,1.695 -2.15,2.421c-0.955,-1.816 -2.15,-3.511 -3.346,-5.084c0.479,-0.848 1.076,-1.574 1.555,-2.421c1.553,1.452 2.986,3.389 3.941,5.084zm4.063,11.499c-0.957,0.121 -1.793,0.363 -2.629,0.605a24.848,24.848 0 0 0 -1.074,-3.994c0.836,-0.848 1.672,-1.695 2.508,-2.664c0.597,1.938 0.957,3.755 1.195,6.053zm-2.031,12.832l-0.119,-0.484c0.238,-1.938 0.357,-3.873 0.238,-5.811c0.479,-0.242 1.076,-0.363 1.553,-0.484c-0.358,2.422 -0.956,4.602 -1.672,6.779zm-24.85,-38.616c-0.359,-0.121 -0.836,-0.363 -1.314,-0.484c7.168,1.573 12.186,3.995 15.053,5.932c-0.357,0.605 -0.836,1.21 -1.193,1.815c-3.585,-3.147 -7.767,-5.689 -12.546,-7.263z"/>
  <path id="svg_8" fill="#db700d" clip-rule="evenodd" fill-rule="evenodd" d="m137.1806,79.99755c5.137,-2.42 7.646,-4.842 8.723,-5.811c0.596,-1.936 0.596,-5.811 0.119,-10.531l-2.867,6.053l0.598,-5.689c-4.304,6.294 -5.616,10.652 -6.573,15.978zm-29.27,-10.289c8.363,-1.09 20.07,-4.6 28.791,-11.016c-4.777,6.053 -10.154,9.562 -18.396,15.012c9.318,-2.664 13.619,-6.9 19.354,-12.105c-4.301,5.93 -6.094,11.863 -9.199,18.277c-0.001,0 -10.872,2.422 -20.55,-10.168zm-3.584,-21.062c8.004,2.904 14.217,2.42 22.102,1.936l-12.305,5.086c6.332,-0.363 13.857,-1.695 19.951,-3.633c-13.023,8.354 -29.629,9.441 -29.629,9.441c-1.671,-4.116 -1.671,-9.442 -0.119,-12.83z"/>
  <path stroke-width="null" id="svg_9" d="m94.1706,25.28155l3.227,-2.178l3.226,2.42l-0.957,-3.873l3.227,-2.3l-3.944,-0.364l-1.193,-3.752l-1.555,3.752l-3.822,0l2.986,2.543l-1.195,3.752zm-38.707,11.743l2.269,-1.332l2.031,1.574l-0.597,-2.542l2.031,-1.574l-2.509,-0.242l-0.836,-2.421l-0.956,2.421l-2.509,0l1.911,1.695l-0.835,2.421z" fill="#bf5f00" clip-rule="evenodd" fill-rule="evenodd"/>
  <path d="m122.59158,103.10675c0,0.19418 0.05686,0.25105 0.19417,0.38835c0.13731,0.13731 0.23029,0.13448 0.58253,0.38835c0.22277,0.16057 0.42196,0.35976 0.58253,0.58253c0.25386,0.35223 0.38834,0.58252 0.58252,0.77669c0.19417,0.19418 0.38835,0.19418 0.58252,0.19418c0.19418,0 0.38835,0.19418 0.58252,0.19418c0.19418,0 0.61346,-0.0756 1.16506,0.19417c0.62891,0.30759 1.07925,0.87754 1.74756,1.35922c0.35224,0.25387 0.77671,0.38835 0.97087,0.58252l0.19419,0.19418" id="svg_10" fill-opacity="null" stroke-opacity="null" stroke-width="null" stroke="null" fill="none"/>
  <path d="m128.22264,104.07763c-0.38834,0.19418 -1.20116,0.52282 -1.55339,0.77669c-0.22277,0.16057 -0.77921,0.35725 -0.97088,0.38836c-0.6061,0.09835 -1.28544,0.13106 -2.33009,0.77669c-0.46719,0.28873 -0.89656,0.56775 -0.97087,0.38835c-0.10509,-0.2537 0.38834,-0.38835 0.77669,-0.58252l0.38835,-0.19417l0.58252,-0.19418l0.77671,-0.19418" id="svg_11" fill-opacity="null" stroke-opacity="null" stroke-width="null" stroke="null" fill="none"/>
  <path d="m36.5722,51.45629c0.19417,-0.19417 0.34491,-0.44601 1.35922,-1.16505c1.49443,-1.05939 4.42735,-2.6058 6.40776,-3.49514c1.90779,-0.85673 3.56294,-1.34577 5.63107,-2.13592c1.62237,-0.61985 2.72364,-1.20966 2.91262,-1.16505c0.42258,0.09976 0.53507,0.39126 0.58252,0.7767c0.19564,1.58921 0.63709,3.50742 0.38835,6.01941c-0.29268,2.95584 -1.19397,5.4266 -1.94174,7.57282c-0.40406,1.15969 -1.44706,2.02996 -3.1068,3.49514c-0.82346,0.72694 -1.01549,0.96567 -0.97087,0.7767c0.19951,-0.84515 2.28156,-3.92234 5.24271,-7.57282c2.86615,-3.53335 5.96972,-7.06233 9.32039,-9.32038c2.67995,-1.80605 5.64519,-3.66639 6.60193,-4.27184c0.5916,-0.37439 0.97088,-0.58253 1.5534,-0.7767l0.19418,-0.19418" id="svg_12" stroke-opacity="null" stroke-width="null" stroke="null" fill="none"/>
  <path d="m63.75665,46.99027c-0.19417,-0.19417 -0.57638,0.01036 -1.5534,0.58253c-1.35088,0.79111 -3.20442,1.81119 -6.01941,2.71844c-1.70389,0.54915 -2.89821,1.26166 -3.88349,1.35922c-0.38646,0.03827 -0.7767,0.08044 -0.7767,-0.19417c-0.00001,-0.54921 1.17182,-1.35115 2.3301,-2.3301c1.36727,-1.15557 3.20162,-2.85685 5.04854,-4.07766c1.66774,-1.10238 2.91262,-1.94175 3.68932,-2.3301l0.58252,-0.38835" id="svg_13" stroke-opacity="null" stroke-width="null" stroke="null" fill="none"/>
  <text transform="matrix(0.47880393132080806,0,0,0.5805418292720076,6.1146470618548765,31.6871320813971) " xml:space="preserve" text-anchor="start" font-family="'Palatino Linotype', 'Book Antiqua', Palatino, serif" font-size="24" id="svg_1" y="62.486003" x="28.754547" stroke-width="null" fill="#1f2528">Pro Basketball</text>
 </g>
</svg>