<svg width="192.756" height="192.756" xmlns="http://www.w3.org/2000/svg">
 <g>
  <title>background</title>
  <rect x="-1" y="-1" width="194.756" height="194.756" id="canvas_background" fill="none"/>
 </g>

 <g>
  <title>Layer 1</title>
  <path d="m85.855,63.416l3.823,-2.3l3.704,2.664l-1.075,-4.479l3.584,-2.663l-4.42,-0.363l-1.434,-4.237l-1.672,4.237l-4.54,0l3.465,2.905l-1.435,4.236m-48.982,19.005l2.15,-1.089l1.792,1.695l-0.239,-2.421l2.031,-1.21l-2.27,-0.363l-0.478,-2.421l-1.195,2.058l-2.389,-0.242l1.672,1.815l-1.074,2.178m114.811,-16.221c-1.434,-0.484 -2.867,-0.968 -4.42,-1.453c2.031,-1.089 4.301,-2.421 4.301,-2.421s-7.287,-1.574 -8.602,-1.937c-0.359,-1.332 -2.15,-8.958 -2.15,-8.958l-1.912,3.995s-1.314,2.542 -1.912,3.873c-1.434,-0.242 -8.959,-1.331 -8.959,-1.331s1.553,1.574 3.105,3.268c-0.717,-0.121 -1.434,-0.121 -2.031,-0.242c-19.592,-1.211 -43.248,2.421 -64.155,11.863l0.836,-4.237c-24.014,9.685 -43.846,31.717 -51.611,56.774c12.664,-13.436 25.208,-26.389 45.041,-34.016l-3.584,11.258c15.412,-10.531 37.155,-13.074 54.957,-9.079l-0.955,3.026c-11.23,-3.51 -23.417,-2.905 -35.483,0.242c12.305,3.027 22.699,5.205 33.452,10.895c1.195,19.006 18.279,35.59 37.992,33.412c39.064,-4.237 46.351,-62.1 6.09,-74.932" fill="none" stroke="#fff" stroke-width="1.074" stroke-miterlimit="2.613" id="svg_2"/>
  <path d="m74.147,96.826c12.067,-3.147 24.253,-3.752 35.483,-0.242l0.955,-3.026c-17.801,-3.995 -39.544,-1.453 -54.957,9.079l3.584,-11.258c-19.833,7.627 -32.377,20.58 -45.041,34.016c7.766,-25.057 27.598,-47.089 51.611,-56.774l-0.836,4.237c20.907,-9.442 44.563,-13.074 64.155,-11.863c7.766,0.484 16.01,3.026 22.58,5.205c40.262,12.832 32.975,70.695 -6.092,74.933c-19.713,2.178 -36.797,-14.406 -37.992,-33.412c-10.75,-5.69 -21.144,-7.867 -33.45,-10.895z" fill-rule="evenodd" clip-rule="evenodd" fill="#bdc8d0" id="svg_3"/>
  <path fill-rule="evenodd" clip-rule="evenodd" fill="#bdc8d0" d="m85.855,63.416l3.824,-2.301l3.703,2.664l-1.075,-4.48l3.584,-2.663l-4.42,-0.363l-1.434,-4.237l-1.672,4.237l-4.54,0l3.465,2.905l-1.435,4.238zm-48.982,19.005l2.15,-1.089l1.792,1.694l-0.239,-2.421l2.031,-1.21l-2.27,-0.363l-0.478,-2.422l-1.194,2.058l-2.39,-0.242l1.673,1.816l-1.075,2.179z" id="svg_4"/>
  <path d="m145.113,66.079c2.031,-1.21 6.451,-3.752 6.451,-3.752s-7.287,-1.574 -8.602,-1.937c-0.359,-1.332 -2.15,-8.958 -2.15,-8.958l-1.912,3.995s-1.314,2.542 -1.912,3.873c-1.434,-0.242 -8.959,-1.331 -8.959,-1.331s3.465,3.752 5.375,5.811c-9.557,-1.211 -21.025,-0.969 -34.646,1.21c-12.664,2.058 -25.088,5.689 -36.677,11.379l0.956,-4.358c-18.159,7.869 -37.036,27.843 -44.323,46.365c11.708,-13.68 28.195,-25.18 43.606,-30.264l-3.106,9.926c14.098,-8.716 38.231,-10.047 54.001,-5.932l-2.391,7.021c-8.602,-3.027 -21.504,-4.116 -30.345,-2.301c10.155,1.816 20.788,3.994 29.628,9.928c0.479,18.398 17.682,33.895 35.842,31.836c33.094,-3.631 46.237,-58.953 -0.836,-72.511z" fill-rule="evenodd" clip-rule="evenodd" fill="#1f2528" id="svg_5"/>
  <path d="m151.684,90.168c2.629,-2.542 4.779,-5.447 6.213,-8.716c-5.496,-4.6 -15.77,-9.806 -40.5,-9.079c10.633,1.453 20.668,3.753 26.521,7.142c-4.658,-1.332 -7.406,-1.453 -7.406,-1.453c-1.314,0.242 -3.227,0.605 -4.541,1.09c7.765,2.301 13.621,5.327 19.713,11.016zm-1.672,1.332c-18.041,-16.342 -50.656,-16.706 -72.519,-8.353c15.531,-1.937 46.474,-4.237 58.779,7.989c-3.703,-1.695 -11.229,-4.237 -15.531,-3.631a36.585,36.585 0 0 0 -3.463,5.932c11.109,3.026 22.699,5.932 32.734,-1.937zm7.168,8.717c-1.672,-2.422 -3.703,-4.722 -5.734,-6.901c-10.871,8.715 -22.939,5.448 -35.244,2.3c-2.27,6.537 -2.389,13.316 -0.119,19.853c14.335,-1.09 29.388,-6.537 41.097,-15.252zm3.703,7.262a50.427,50.427 0 0 0 -2.508,-5.084c-11.947,8.838 -26.523,14.164 -41.338,15.496c5.377,11.016 16.129,17.553 28.314,16.463c2.868,-10.047 6.213,-20.944 15.532,-26.875zm0.836,2.421c-8.482,5.084 -11.23,15.012 -13.857,24.09c5.854,-1.211 11.111,-3.873 15.291,-8.232c0.837,-5.326 0.12,-10.774 -1.434,-15.858zm1.912,-1.332c1.434,4.48 2.15,9.08 2.389,13.68c3.107,-5.205 4.66,-9.564 5.02,-15.857c-2.511,0.484 -5.02,1.088 -7.409,2.177zm-3.465,-7.506c0.957,1.695 1.793,3.512 2.629,5.328c2.748,-1.211 5.375,-1.938 8.244,-2.422c-0.359,-4.236 -1.195,-7.264 -2.988,-11.137c-2.389,3.027 -4.899,5.69 -7.885,8.231zm-6.93,-9.199c1.912,2.058 3.943,4.6 5.615,7.022c2.988,-2.543 5.615,-5.206 7.887,-8.474c-1.912,-2.905 -5.139,-6.174 -7.289,-7.748c-1.433,3.51 -3.584,6.537 -6.213,9.2zm-102.146,-3.389l1.911,-1.09l1.912,1.332l-0.598,-2.3l1.912,-1.332l-2.27,-0.121l-0.717,-2.3l-0.836,2.179l-2.27,0l1.673,1.452l-0.717,2.18zm185.417,-15.496l4.899,-2.299l4.181,4.115l-0.957,-5.69l4.661,-2.663l-5.497,-1.21l-1.314,-5.69l-2.389,4.963l-5.615,-0.847l4.063,4.237l-2.032,5.084z" fill-rule="evenodd" clip-rule="evenodd" fill="#bdc8d0" id="svg_6"/>
  <path d="m165.064,90.653c-0.717,0.847 -1.434,1.695 -2.15,2.421c-0.955,-1.816 -2.15,-3.511 -3.346,-5.084c0.479,-0.848 1.076,-1.574 1.555,-2.421c1.553,1.452 2.986,3.389 3.941,5.084zm4.063,11.499c-0.957,0.121 -1.793,0.363 -2.629,0.605a24.848,24.848 0 0 0 -1.074,-3.994c0.836,-0.848 1.672,-1.695 2.508,-2.664c0.597,1.938 0.957,3.755 1.195,6.053zm-2.031,12.832l-0.119,-0.484c0.238,-1.938 0.357,-3.873 0.238,-5.811c0.479,-0.242 1.076,-0.363 1.553,-0.484c-0.358,2.422 -0.956,4.602 -1.672,6.779zm-24.85,-38.616c-0.359,-0.121 -0.836,-0.363 -1.314,-0.484c7.168,1.573 12.186,3.995 15.053,5.932c-0.357,0.605 -0.836,1.21 -1.193,1.815c-3.585,-3.147 -7.767,-5.689 -12.546,-7.263z" fill-rule="evenodd" clip-rule="evenodd" fill="#fff" id="svg_7"/>
  <path d="m150.967,131.205c5.137,-2.42 7.646,-4.842 8.723,-5.811c0.596,-1.936 0.596,-5.811 0.119,-10.531l-2.867,6.053l0.598,-5.689c-4.304,6.294 -5.616,10.652 -6.573,15.978zm-29.27,-10.289c8.363,-1.09 20.07,-4.6 28.791,-11.016c-4.777,6.053 -10.154,9.562 -18.396,15.012c9.318,-2.664 13.619,-6.9 19.354,-12.105c-4.301,5.93 -6.094,11.863 -9.199,18.277c-0.001,0 -10.872,2.422 -20.55,-10.168zm-3.584,-21.062c8.004,2.904 14.217,2.42 22.102,1.936l-12.305,5.086c6.332,-0.363 13.857,-1.695 19.951,-3.633c-13.023,8.354 -29.629,9.441 -29.629,9.441c-1.671,-4.116 -1.671,-9.442 -0.119,-12.83z" fill-rule="evenodd" clip-rule="evenodd" fill="#db700d" id="svg_8"/>
  <path fill-rule="evenodd" clip-rule="evenodd" fill="#bf5f00" d="m107.957,76.489l3.227,-2.178l3.226,2.42l-0.957,-3.873l3.227,-2.3l-3.944,-0.364l-1.193,-3.752l-1.555,3.752l-3.822,0l2.986,2.543l-1.195,3.752zm-38.707,11.743l2.269,-1.332l2.031,1.574l-0.597,-2.542l2.031,-1.574l-2.509,-0.242l-0.836,-2.421l-0.956,2.421l-2.509,0l1.911,1.695l-0.835,2.421z" id="svg_9" stroke-width="null"/>
  <path fill="none" stroke="null" stroke-width="null" stroke-opacity="null" fill-opacity="null" id="svg_10" d="m122.591583,103.10675c0,0.194176 0.056862,0.251045 0.194168,0.388351c0.137306,0.137306 0.230293,0.134476 0.582527,0.388351c0.222771,0.160568 0.421967,0.359756 0.582527,0.582527c0.253868,0.352226 0.388344,0.58252 0.58252,0.776695c0.194176,0.194176 0.388351,0.194176 0.582527,0.194176c0.194176,0 0.388351,0.194176 0.58252,0.194176c0.194176,0 0.613457,-0.0756 1.165054,0.194176c0.628914,0.307587 1.079254,0.877533 1.747566,1.359222c0.352234,0.253868 0.776703,0.388344 0.970871,0.58252l0.194183,0.194176"/>
  <path fill="none" stroke="null" stroke-width="null" stroke-opacity="null" fill-opacity="null" id="svg_11" d="m128.222641,104.077629c-0.388344,0.194176 -1.201164,0.52282 -1.553391,0.776695c-0.222771,0.160568 -0.779213,0.357246 -0.970879,0.388351c-0.606102,0.098358 -1.285439,0.131065 -2.330093,0.776695c-0.467186,0.288734 -0.896561,0.567749 -0.970871,0.388351c-0.105087,-0.2537 0.388344,-0.388351 0.776695,-0.58252l0.388351,-0.194176l0.58252,-0.194176l0.776703,-0.194176"/>
  <path fill="none" stroke="null" stroke-width="null" stroke-opacity="null" id="svg_12" d="m36.572197,51.456291c0.194176,-0.194176 0.34491,-0.446011 1.359222,-1.165051c1.494431,-1.059391 4.427349,-2.605804 6.407764,-3.495144c1.907791,-0.856724 3.562939,-1.345764 5.631065,-2.135921c1.622372,-0.61985 2.72364,-1.20966 2.912621,-1.165047c0.422577,0.099758 0.535072,0.391258 0.582523,0.776699c0.195641,1.589211 0.637085,3.507427 0.388351,6.019413c-0.292686,2.955845 -1.193974,5.426598 -1.941746,7.572815c-0.404053,1.159695 -1.44706,2.029961 -3.106796,3.495144c-0.82346,0.726936 -1.015488,0.965675 -0.970875,0.776699c0.199512,-0.845146 2.281563,-3.922337 5.242718,-7.572815c2.866146,-3.533356 5.969715,-7.062336 9.320385,-9.320385c2.679955,-1.806046 5.645195,-3.666389 6.601936,-4.271843c0.591599,-0.374382 0.970879,-0.582523 1.553398,-0.776699l0.194176,-0.194172"/>
  <path fill="none" stroke="null" stroke-width="null" stroke-opacity="null" id="svg_13" d="m63.756653,46.990273c-0.194176,-0.194176 -0.576382,0.010361 -1.553398,0.582523c-1.350883,0.791111 -3.204422,1.811195 -6.019413,2.718445c-1.703896,0.549152 -2.898212,1.261662 -3.883495,1.359222c-0.386459,0.038265 -0.776699,0.080433 -0.776699,-0.194172c-0.000004,-0.549213 1.171818,-1.351154 2.330097,-2.330097c1.367279,-1.155579 3.201626,-2.85685 5.048542,-4.077667c1.66774,-1.102379 2.912621,-1.94175 3.68932,-2.330097l0.582523,-0.388351"/>
 </g>
</svg>